# xmcd CD database file
#
# Track frame offsets:
#	183
#	14938
#	27013
#	43918
#	55018
#	67543
#	86240
#	101220
#	110338
#	127733
#	148708
#	160995
#	182038
#	197560
#
# Disc length: 2837 seconds
#
# Revision: 3
# Processed by: cddbd v1.5PL3 Copyright (c) Steve Scherf et al.
# Submitted via: CDex 1.50
#
DISCID=bd0b130e
DTITLE=Michal Tucny - ve Valdickem lapaku (Live 10.11.'90)
DYEAR=1990
DGENRE=Country
TTITLE0=V tyhle skale mi Buh domov dal (I Got A Home In That Rock)
TTITLE1=Rovnou, tady rovnou (Roll On Buddy, Roll On)
TTITLE2=Jeste dlouhou cestu mam
TTITLE3=Blues folsomske veznice (Folsom Prison Blues)
TTITLE4=Osamele houkani (I Heard That Lonesome Whistle)
TTITLE5=Poveste ho vejs (Hang Him Higher)
TTITLE6=Rad se brouzdam rosou
TTITLE7=Tucnaci
TTITLE8=Dnesni noc bude dlouha (Soldier's Last Letter)
TTITLE9=Stat mimo zakon
TTITLE10=Odjizdim v dal (I'm A Long Gone Daddy)
TTITLE11=Vsichni jsou uz v Mexiku (They All Went To Mexico)
TTITLE12=Posledni kovboj
TTITLE13=Chvili spat
EXTD=YEAR: 1990
EXTT0=
EXTT1=
EXTT2=
EXTT3=
EXTT4=
EXTT5=
EXTT6=
EXTT7=
EXTT8=
EXTT9=
EXTT10=
EXTT11=
EXTT12=
EXTT13=
PLAYORDER=
